<svg width="51" height="41" viewBox="0 0 51 41" fill="none" xmlns="http://www.w3.org/2000/svg">
<path opacity="0.2" d="M45.7939 34.772C50.5114 29.652 50.0364 23.077 50.0214 23.002V3.00195C50.0214 2.33891 49.758 1.70303 49.2892 1.23419C48.8203 0.765346 48.1844 0.501953 47.5214 0.501953H32.5214C29.7639 0.501953 27.5214 2.74445 27.5214 5.50195V23.002C27.5214 23.665 27.7848 24.3009 28.2536 24.7697C28.7225 25.2386 29.3584 25.502 30.0214 25.502H37.7164C37.6636 26.7379 37.2943 27.9396 36.6439 28.992C35.3739 30.9945 32.9814 32.362 29.5289 33.052L27.5214 33.452V40.502H30.0214C36.9789 40.502 42.2864 38.5745 45.7939 34.772ZM18.2764 34.772C22.9964 29.652 22.5189 23.077 22.5039 23.002V3.00195C22.5039 2.33891 22.2405 1.70303 21.7717 1.23419C21.3028 0.765346 20.6669 0.501953 20.0039 0.501953H5.00391C2.24641 0.501953 0.00390625 2.74445 0.00390625 5.50195V23.002C0.00390625 23.665 0.267298 24.3009 0.736139 24.7697C1.20498 25.2386 1.84087 25.502 2.50391 25.502H10.1989C10.1461 26.7379 9.7768 27.9396 9.12641 28.992C7.85641 30.9945 5.46391 32.362 2.01141 33.052L0.00390625 33.452V40.502H2.50391C9.46141 40.502 14.7689 38.5745 18.2764 34.772Z" fill="#17A2B8"/>
</svg>
