<svg width="90" height="90" viewBox="0 0 90 90" fill="none" xmlns="http://www.w3.org/2000/svg">
<g clip-path="url(#clip0_6451_1404)">
<path d="M74.9999 45.2191H32.9999C30.0719 45.2281 30.0479 49.7071 32.9999 49.7191H74.9999C77.9279 49.7101 77.9519 45.2311 74.9999 45.2191ZM73.2629 16.2871H60.2549C59.1978 16.2879 58.1841 16.7082 57.4366 17.4558C56.689 18.2033 56.2687 19.2169 56.2679 20.2741V31.1671C56.2711 32.2236 56.6922 33.2358 57.4392 33.9828C58.1862 34.7299 59.1985 35.1509 60.2549 35.1541H73.2629C74.3194 35.1509 75.3317 34.7299 76.0787 33.9828C76.8257 33.2358 77.2468 32.2236 77.2499 31.1671V20.2741C77.2491 19.2169 76.8288 18.2033 76.0813 17.4558C75.3338 16.7082 74.3201 16.2879 73.2629 16.2871ZM72.7499 30.6541H60.7679V20.7871H72.7499V30.6541ZM35.0219 34.1461H48.4649C51.4049 34.1341 51.4109 29.6581 48.4649 29.6461H35.0219C32.0849 29.6581 32.0759 34.1341 35.0219 34.1461ZM35.0219 21.7951H48.4649C51.4049 21.7831 51.4109 17.3071 48.4649 17.2951H35.0219C32.0849 17.3071 32.0759 21.7831 35.0219 21.7951ZM74.9999 69.2191H32.9999C30.0719 69.2281 30.0479 73.7071 32.9999 73.7191H74.9999C77.9279 73.7101 77.9519 69.2311 74.9999 69.2191ZM74.9999 57.2191H32.9999C30.0719 57.2281 30.0479 61.7071 32.9999 61.7191H74.9999C77.9279 61.7101 77.9519 57.2311 74.9999 57.2191Z" fill="#0B0040"/>
<path d="M75 0.75H33C29.2221 0.754763 25.6004 2.25763 22.929 4.92899C20.2576 7.60035 18.7548 11.2221 18.75 15V78C18.537 86.886 5.472 86.913 5.25 78V61.5C5.25159 59.3125 6.12129 57.215 7.66812 55.6681C9.21496 54.1213 11.3125 53.2516 13.5 53.25C14.0967 53.25 14.669 53.0129 15.091 52.591C15.5129 52.169 15.75 51.5967 15.75 51C15.75 50.4033 15.5129 49.831 15.091 49.409C14.669 48.9871 14.0967 48.75 13.5 48.75C10.1195 48.7532 6.8783 50.0975 4.4879 52.4879C2.0975 54.8783 0.753177 58.1195 0.75 61.5V78C0.764199 80.9793 1.95402 83.8326 4.06074 85.9393C6.16745 88.046 9.02069 89.2358 12 89.25H78C80.9793 89.2358 83.8326 88.046 85.9393 85.9393C88.046 83.8326 89.2358 80.9793 89.25 78V15C89.2452 11.2221 87.7424 7.60035 85.071 4.92899C82.3997 2.25763 78.7779 0.754763 75 0.75ZM84.75 78C84.7382 79.7866 84.0233 81.4966 82.7599 82.7599C81.4966 84.0233 79.7866 84.7382 78 84.75H20.973C22.443 82.806 23.244 80.436 23.25 78V15C23.2532 12.4151 24.2814 9.93701 26.1092 8.10922C27.937 6.28142 30.4151 5.25318 33 5.25H75C77.5849 5.25318 80.063 6.28142 81.8908 8.10922C83.7186 9.93701 84.7468 12.4151 84.75 15V78Z" fill="#3F73DB"/>
</g>
<defs>
<clipPath id="clip0_6451_1404">
<rect width="90" height="90" fill="white"/>
</clipPath>
</defs>
</svg>
