<svg width="90" height="90" viewBox="0 0 90 90" fill="none" xmlns="http://www.w3.org/2000/svg">
<path d="M82.9688 81.5625H78.4969C77.4281 76.3875 76.7953 70.3125 69.7781 67.1766C73.4906 64.35 73.125 60.7641 73.125 57.6562C73.125 55.4185 72.2361 53.2724 70.6537 51.69C69.0714 50.1077 66.9253 49.2188 64.6875 49.2188C62.4497 49.2188 60.3036 50.1077 58.7213 51.69C57.1389 53.2724 56.25 55.4185 56.25 57.6562C56.25 61.0031 55.9125 64.3641 59.5828 67.1766C56.925 68.3438 59.1328 68.4422 55.7297 65.6719C54.2214 64.4584 52.5194 63.5076 50.6953 62.8594C55.1672 59.6672 54.9141 55.3922 54.9141 52.0312C54.9141 49.4205 53.877 46.9167 52.0309 45.0707C50.1848 43.2246 47.681 42.1875 45.0703 42.1875C42.4596 42.1875 39.9558 43.2246 38.1097 45.0707C36.2637 46.9167 35.2266 49.4205 35.2266 52.0312C35.2266 55.1531 34.7484 59.5687 39.4453 62.8734C36.575 63.8891 34.0302 65.6569 32.0766 67.9922C31.587 67.682 31.0746 67.4093 30.5437 67.1766C34.1297 64.3359 33.75 60.75 33.75 57.6562C33.75 55.4185 32.8611 53.2724 31.2787 51.69C29.6964 50.1077 27.5503 49.2188 25.3125 49.2188C23.0747 49.2188 20.9286 50.1077 19.3463 51.69C17.7639 53.2724 16.875 55.4185 16.875 57.6562C16.875 61.0031 16.5375 64.3781 20.2219 67.1906C13.1766 70.3125 12.5297 76.5844 11.5031 81.5625H7.03125C6.65829 81.5625 6.3006 81.7107 6.03688 81.9744C5.77316 82.2381 5.625 82.5958 5.625 82.9688C5.625 83.3417 5.77316 83.6994 6.03688 83.9631C6.3006 84.2268 6.65829 84.375 7.03125 84.375H82.9688C83.3417 84.375 83.6994 84.2268 83.9631 83.9631C84.2268 83.6994 84.375 83.3417 84.375 82.9688C84.375 82.5958 84.2268 82.2381 83.9631 81.9744C83.6994 81.7107 83.3417 81.5625 82.9688 81.5625ZM59.0625 60.4688V57.6562C59.0625 56.1644 59.6551 54.7337 60.71 53.6788C61.7649 52.6239 63.1957 52.0312 64.6875 52.0312C66.1793 52.0312 67.6101 52.6239 68.665 53.6788C69.7199 54.7337 70.3125 56.1644 70.3125 57.6562V60.4688C70.3125 61.9606 69.7199 63.3913 68.665 64.4462C67.6101 65.5011 66.1793 66.0938 64.6875 66.0938C63.1957 66.0938 61.7649 65.5011 60.71 64.4462C59.6551 63.3913 59.0625 61.9606 59.0625 60.4688ZM37.9688 54.8438V52.0312C37.9688 50.1664 38.7095 48.378 40.0282 47.0594C41.3468 45.7408 43.1352 45 45 45C46.8648 45 48.6532 45.7408 49.9718 47.0594C51.2905 48.378 52.0312 50.1664 52.0312 52.0312V54.8438C52.0312 56.7086 51.2905 58.497 49.9718 59.8156C48.6532 61.1342 46.8648 61.875 45 61.875C43.1352 61.875 41.3468 61.1342 40.0282 59.8156C38.7095 58.497 37.9688 56.7086 37.9688 54.8438ZM19.6875 60.4688V57.6562C19.6875 56.1644 20.2801 54.7337 21.335 53.6788C22.3899 52.6239 23.8207 52.0312 25.3125 52.0312C26.8043 52.0312 28.2351 52.6239 29.29 53.6788C30.3449 54.7337 30.9375 56.1644 30.9375 57.6562V60.4688C30.9375 61.9606 30.3449 63.3913 29.29 64.4462C28.2351 65.5011 26.8043 66.0938 25.3125 66.0938C23.8207 66.0938 22.3899 65.5011 21.335 64.4462C20.2801 63.3913 19.6875 61.9606 19.6875 60.4688ZM15.2156 77.4984C15.4949 75.8854 16.157 74.3628 17.1463 73.0584C18.1356 71.7541 19.4232 70.706 20.9013 70.0021C22.3793 69.2983 24.0046 68.9591 25.6407 69.0131C27.2769 69.0671 28.8763 69.5127 30.3047 70.3125C28.3781 73.5469 28.0547 76.5984 26.9859 81.5625H20.0812L21.0938 77.6813C21.1833 77.3083 21.1209 76.9151 20.9205 76.588C20.7201 76.261 20.398 76.027 20.025 75.9375C19.652 75.848 19.2588 75.9103 18.9318 76.1107C18.6048 76.3112 18.3708 76.6333 18.2812 77.0062L17.1844 81.5625H14.3719L15.2156 77.4984ZM56.1094 81.5625L54.7031 75.6281C54.6118 75.2663 54.3804 74.9557 54.06 74.7645C53.7396 74.5733 53.3563 74.5172 52.9945 74.6086C52.6328 74.7 52.3221 74.9313 52.1309 75.2517C51.9397 75.5722 51.8836 75.9554 51.975 76.3172L53.2125 81.5625H36.8719L37.9688 76.2188C38.0433 75.8458 37.9667 75.4585 37.7557 75.142C37.5448 74.8255 37.2167 74.6058 36.8438 74.5312C36.4708 74.4567 36.0835 74.5333 35.767 74.7443C35.4505 74.9552 35.2308 75.2833 35.1562 75.6562L34.0031 81.5625H29.8687C30.2868 79.1508 30.8266 76.7618 31.4859 74.4047C32.3281 71.9145 33.8416 69.7052 35.8596 68.0205C37.8776 66.3358 40.3216 65.2411 42.9222 64.8571C45.5228 64.4731 48.1789 64.8148 50.5976 65.8444C53.0163 66.874 55.1038 68.5516 56.6297 70.6922C58.8094 73.7297 59.0203 76.3172 60.1312 81.5625H56.1094ZM72.8156 81.5625L71.7188 77.0062C71.6178 76.657 71.3856 76.3604 71.0707 76.1787C70.7559 75.997 70.3829 75.9442 70.03 76.0315C69.6771 76.1188 69.3718 76.3394 69.178 76.647C68.9842 76.9546 68.917 77.3252 68.9906 77.6813L69.9188 81.5625H63.0141C61.8188 75.9375 61.4813 73.2656 59.6953 70.3125C61.1254 69.5057 62.7291 69.0558 64.3701 69.0009C66.0112 68.946 67.6413 69.2877 69.1222 69.9971C70.603 70.7065 71.8909 71.7626 72.8766 73.0758C73.8623 74.389 74.5168 75.9206 74.7844 77.5406L75.6141 81.5625H72.8156Z" fill="#3F73DB"/>
<path d="M74.5312 5.625H15.4688C12.858 5.625 10.3542 6.66211 8.50817 8.50817C6.66211 10.3542 5.625 12.858 5.625 15.4688V23.9062C5.625 26.517 6.66211 29.0208 8.50817 30.8668C10.3542 32.7129 12.858 33.75 15.4688 33.75H20.2219L24.0609 41.4141C24.1789 41.6444 24.3582 41.8377 24.5791 41.9727C24.7999 42.1077 25.0537 42.1791 25.3125 42.1791C25.5713 42.1791 25.8251 42.1077 26.0459 41.9727C26.2668 41.8377 26.4461 41.6444 26.5641 41.4141L30.4031 33.75H41.3156L43.7484 38.6016C43.8664 38.8319 44.0457 39.0252 44.2666 39.1602C44.4874 39.2952 44.7412 39.3666 45 39.3666C45.2588 39.3666 45.5126 39.2952 45.7334 39.1602C45.9543 39.0252 46.1336 38.8319 46.2516 38.6016L48.6844 33.75H59.5969L63.4359 41.4141C63.5539 41.6444 63.7332 41.8377 63.9541 41.9727C64.1749 42.1077 64.4287 42.1791 64.6875 42.1791C64.9463 42.1791 65.2001 42.1077 65.4209 41.9727C65.6418 41.8377 65.8211 41.6444 65.9391 41.4141L69.7781 33.75H74.5312C77.142 33.75 79.6458 32.7129 81.4918 30.8668C83.3379 29.0208 84.375 26.517 84.375 23.9062V15.4688C84.375 12.858 83.3379 10.3542 81.4918 8.50817C79.6458 6.66211 77.142 5.625 74.5312 5.625ZM81.5625 23.9062C81.5625 25.7711 80.8217 27.5595 79.5031 28.8781C78.1845 30.1967 76.3961 30.9375 74.5312 30.9375H68.9062C67.7531 30.9375 67.8094 31.3875 64.6875 37.6312C61.4953 31.2609 61.6078 30.9375 60.4688 30.9375C46.4062 30.9375 47.0812 30.6703 46.5609 31.7109L45 34.8188L43.4391 31.7109C42.9188 30.6562 43.3547 30.9375 29.5312 30.9375C28.3781 30.9375 28.4344 31.3875 25.3125 37.6312C22.1203 31.2609 22.2328 30.9375 21.0938 30.9375H15.4688C13.6039 30.9375 11.8155 30.1967 10.4969 28.8781C9.17829 27.5595 8.4375 25.7711 8.4375 23.9062V15.4688C8.4375 13.6039 9.17829 11.8155 10.4969 10.4969C11.8155 9.17829 13.6039 8.4375 15.4688 8.4375H74.5312C76.3961 8.4375 78.1845 9.17829 79.5031 10.4969C80.8217 11.8155 81.5625 13.6039 81.5625 15.4688V23.9062Z" fill="#0B0040"/>
<path d="M31.106 16.3965L27.9841 15.7919L26.4373 12.9794C26.3157 12.7596 26.1374 12.5763 25.921 12.4488C25.7046 12.3212 25.458 12.2539 25.2068 12.2539C24.9556 12.2539 24.709 12.3212 24.4926 12.4488C24.2762 12.5763 24.0979 12.7596 23.9763 12.9794L22.4295 15.7919C19.1107 16.4387 18.5763 16.3544 18.2107 17.3387C17.8451 18.3231 18.5482 18.745 20.6857 21.0653C20.2638 24.4262 20.0107 24.9184 20.8685 25.5231C21.7263 26.1278 22.2748 25.6356 25.1716 24.3278C28.3216 25.734 28.2232 25.734 28.6451 25.734C28.8449 25.7355 29.0426 25.6944 29.2253 25.6134C29.4079 25.5324 29.5712 25.4134 29.7042 25.2644C29.8373 25.1154 29.9371 24.9397 29.9969 24.7491C30.0568 24.5585 30.0753 24.3574 30.0513 24.159L29.6998 21.0934L31.8654 18.759C32.0428 18.576 32.1671 18.3483 32.225 18.1001C32.283 17.8519 32.2724 17.5926 32.1944 17.35C32.1164 17.1074 31.974 16.8905 31.7823 16.7225C31.5906 16.5546 31.3568 16.4419 31.106 16.3965ZM26.9857 22.0215C24.9888 21.0934 25.3826 21.1075 23.442 22.0215C23.6951 19.884 23.8357 20.2637 22.3451 18.6465C24.4966 18.2247 24.1732 18.4356 25.1576 16.5512C26.1982 18.4356 25.8607 18.2247 27.9701 18.6465C26.6201 20.2356 26.7185 19.8559 26.9857 22.0497V22.0215ZM47.9951 14.0622C47.4389 14.0608 46.8879 14.1694 46.3739 14.3818C45.8598 14.5942 45.3928 14.9061 44.9998 15.2997C44.6145 14.8843 44.1495 14.5508 43.6326 14.3191C43.1157 14.0873 42.5573 13.962 41.9909 13.9507C41.4245 13.9394 40.8617 14.0423 40.3359 14.2533C39.8101 14.4642 39.3322 14.7789 38.9307 15.1785C38.5291 15.5781 38.2122 16.0546 37.9988 16.5793C37.7854 17.1041 37.6798 17.6665 37.6885 18.233C37.6971 18.7994 37.8197 19.3583 38.0491 19.8763C38.2784 20.3944 38.6097 20.8609 39.0232 21.2481L44.0435 26.2684C44.307 26.5303 44.6634 26.6773 45.0349 26.6773C45.4064 26.6773 45.7629 26.5303 46.0263 26.2684L51.0045 21.3044C51.6102 20.7151 52.0251 19.9574 52.1952 19.1296C52.3653 18.3018 52.2829 17.442 51.9586 16.6615C51.6343 15.8811 51.0831 15.2161 50.3764 14.7526C49.6697 14.2891 48.8401 14.0486 47.9951 14.0622ZM49.0076 19.3075L44.9998 23.2872L41.006 19.2653C40.8141 19.0696 40.6835 18.8221 40.6303 18.5532C40.5772 18.2842 40.6038 18.0056 40.7069 17.7517C40.81 17.4977 40.9851 17.2793 41.2106 17.1235C41.4361 16.9677 41.7023 16.8812 41.9763 16.8747C42.6654 16.8747 42.8482 17.1559 44.0013 18.2809C44.2648 18.5428 44.6212 18.6898 44.9927 18.6898C45.3643 18.6898 45.7207 18.5428 45.9841 18.2809L46.9826 17.2825C47.2511 17.014 47.6153 16.8631 47.9951 16.8631C48.3748 16.8631 48.7391 17.014 49.0076 17.2825C49.2761 17.551 49.427 17.9152 49.427 18.295C49.427 18.6747 49.2761 19.039 49.0076 19.3075ZM70.481 17.8028L67.3591 17.1981L65.8123 14.3856C65.6907 14.1658 65.5124 13.9826 65.296 13.855C65.0796 13.7274 64.833 13.6602 64.5818 13.6602C64.3306 13.6602 64.084 13.7274 63.8676 13.855C63.6512 13.9826 63.4729 14.1658 63.3513 14.3856L61.8045 17.1981C58.4857 17.845 57.9513 17.7606 57.5857 18.745C57.2201 19.7294 57.9232 20.1512 60.0607 22.4715C59.6388 25.8325 59.3857 26.3247 60.2435 26.9294C61.1013 27.534 61.7201 27.0419 64.5466 25.734C67.6967 27.1403 67.5982 27.1403 68.0201 27.1403C68.2199 27.1417 68.4176 27.1006 68.6003 27.0196C68.7829 26.9386 68.9462 26.8197 69.0792 26.6707C69.2123 26.5216 69.3121 26.346 69.3719 26.1554C69.4318 25.9648 69.4503 25.7636 69.4263 25.5653L69.0748 22.4997L71.2404 20.1653C71.4178 19.9823 71.5421 19.7545 71.6 19.5063C71.658 19.2582 71.6474 18.9989 71.5694 18.7562C71.4914 18.5136 71.349 18.2967 71.1573 18.1288C70.9656 17.9609 70.7318 17.8482 70.481 17.8028ZM66.3607 23.4278C64.3638 22.4997 64.7576 22.5137 62.817 23.4278C63.0701 21.2903 63.2107 21.67 61.7201 20.0528C63.8716 19.6309 63.5482 19.8419 64.5326 17.9575C65.5732 19.8419 65.2357 19.6309 67.3451 20.0528C65.9951 21.6419 66.0935 21.2622 66.3607 23.4559V23.4278Z" fill="#0B0040"/>
</svg>
