<svg width="90" height="90" viewBox="0 0 90 90" fill="none" xmlns="http://www.w3.org/2000/svg">
<g clip-path="url(#clip0_6451_1454)">
<path d="M64.7631 24.7852C64.7631 25.1348 64.902 25.4701 65.1492 25.7174C65.3965 25.9646 65.7318 26.1035 66.0814 26.1035H71.1035C71.4532 26.1035 71.7885 25.9646 72.0357 25.7174C72.283 25.4701 72.4219 25.1348 72.4219 24.7852C72.4219 24.4355 72.283 24.1002 72.0357 23.8529C71.7885 23.6057 71.4532 23.4668 71.1035 23.4668H66.0814C65.7318 23.4668 65.3965 23.6057 65.1492 23.8529C64.902 24.1002 64.7631 24.4355 64.7631 24.7852ZM65.1639 20.4539C65.3751 20.454 65.5832 20.4027 65.7703 20.3045L70.1191 18.0457C70.4296 17.8849 70.6635 17.6073 70.7693 17.274C70.8751 16.9407 70.8442 16.579 70.6834 16.2686C70.5226 15.9581 70.245 15.7242 69.9117 15.6184C69.5784 15.5125 69.2167 15.5435 68.9062 15.7043L64.5539 17.9648C64.2913 18.1008 64.0821 18.3211 63.9598 18.5904C63.8375 18.8596 63.8093 19.1621 63.8797 19.4493C63.95 19.7365 64.1149 19.9918 64.3479 20.1739C64.5808 20.3561 64.8682 20.4547 65.1639 20.4539ZM64.5539 31.6055L68.9062 33.866C69.2167 34.0271 69.5785 34.0582 69.9119 33.9526C70.2454 33.8469 70.5232 33.6131 70.6843 33.3026C70.8453 32.9921 70.8765 32.6304 70.7708 32.2969C70.6652 31.9635 70.4314 31.6857 70.1209 31.5246L65.7721 29.2658C65.4618 29.1045 65.1002 29.0731 64.7667 29.1784C64.4333 29.2837 64.1553 29.5172 63.994 29.8274C63.8327 30.1377 63.8013 30.4993 63.9066 30.8328C64.0119 31.1662 64.2454 31.4442 64.5557 31.6055H64.5539ZM18.8965 26.1035H23.9186C24.2682 26.1035 24.6035 25.9646 24.8508 25.7174C25.098 25.4701 25.2369 25.1348 25.2369 24.7852C25.2369 24.4355 25.098 24.1002 24.8508 23.8529C24.6035 23.6057 24.2682 23.4668 23.9186 23.4668H18.8965C18.5468 23.4668 18.2115 23.6057 17.9643 23.8529C17.717 24.1002 17.5781 24.4355 17.5781 24.7852C17.5781 25.1348 17.717 25.4701 17.9643 25.7174C18.2115 25.9646 18.5468 26.1035 18.8965 26.1035ZM19.8809 18.0457L24.2297 20.3045C24.4168 20.4027 24.6249 20.454 24.8361 20.4539C25.1318 20.4547 25.4192 20.3561 25.6521 20.1739C25.8851 19.9918 26.05 19.7365 26.1203 19.4493C26.1907 19.1621 26.1625 18.8596 26.0402 18.5904C25.9179 18.3211 25.7087 18.1008 25.4461 17.9648L21.0938 15.7043C20.7833 15.5432 20.4215 15.5121 20.0881 15.6177C19.7546 15.7234 19.4768 15.9572 19.3157 16.2677C19.1547 16.5782 19.1235 16.9399 19.2292 17.2734C19.3348 17.6068 19.5686 17.8846 19.8791 18.0457H19.8809ZM24.2297 29.2658L19.8809 31.5246C19.5704 31.6854 19.3365 31.963 19.2307 32.2963C19.1249 32.6296 19.1558 32.9913 19.3166 33.3018C19.4774 33.6122 19.755 33.8461 20.0883 33.9519C20.4216 34.0578 20.7833 34.0269 21.0938 33.866L25.4443 31.6055C25.7546 31.4442 25.9881 31.1662 26.0934 30.8328C26.1987 30.4993 26.1673 30.1377 26.006 29.8274C25.8447 29.5172 25.5667 29.2837 25.2333 29.1784C24.8998 29.0731 24.5382 29.1045 24.2279 29.2658H24.2297ZM19.5117 56.8652H16.875C16.5253 56.8652 16.19 57.0041 15.9428 57.2514C15.6955 57.4986 15.5566 57.8339 15.5566 58.1836C15.5566 58.5332 15.6955 58.8686 15.9428 59.1158C16.19 59.3631 16.5253 59.502 16.875 59.502H19.5117C19.8614 59.502 20.1967 59.3631 20.4439 59.1158C20.6912 58.8686 20.8301 58.5332 20.8301 58.1836C20.8301 57.8339 20.6912 57.4986 20.4439 57.2514C20.1967 57.0041 19.8614 56.8652 19.5117 56.8652ZM58.1836 56.8652H55.5469C55.1972 56.8652 54.8619 57.0041 54.6147 57.2514C54.3674 57.4986 54.2285 57.8339 54.2285 58.1836C54.2285 58.5332 54.3674 58.8686 54.6147 59.1158C54.8619 59.3631 55.1972 59.502 55.5469 59.502H58.1836C58.5332 59.502 58.8686 59.3631 59.1158 59.1158C59.3631 58.8686 59.502 58.5332 59.502 58.1836C59.502 57.8339 59.3631 57.4986 59.1158 57.2514C58.8686 57.0041 58.5332 56.8652 58.1836 56.8652ZM30.9375 36.6504H59.0625C59.4122 36.6504 59.7475 36.5115 59.9947 36.2643C60.242 36.017 60.3809 35.6817 60.3809 35.332V14.2383C60.3809 13.8886 60.242 13.5533 59.9947 13.3061C59.7475 13.0588 59.4122 12.9199 59.0625 12.9199H30.9375C30.5878 12.9199 30.2525 13.0588 30.0053 13.3061C29.758 13.5533 29.6191 13.8886 29.6191 14.2383V35.332C29.6191 35.6817 29.758 36.017 30.0053 36.2643C30.2525 36.5115 30.5878 36.6504 30.9375 36.6504ZM41.9238 15.5566H48.0762V21.0797L45.4904 20.0391C45.1757 19.9125 44.8243 19.9125 44.5096 20.0391L41.9238 21.0727V15.5566ZM32.2559 15.5566H39.2871V23.0273C39.286 23.2434 39.338 23.4565 39.4386 23.6477C39.5392 23.839 39.6853 24.0026 39.8639 24.1241C40.0426 24.2457 40.2484 24.3214 40.4632 24.3447C40.6781 24.3681 40.8953 24.3382 41.0959 24.2578L45 22.6898L48.9041 24.2578C49.1047 24.3387 49.3221 24.3689 49.5371 24.3457C49.7521 24.3226 49.9581 24.2469 50.1369 24.1253C50.3157 24.0036 50.4617 23.8399 50.5622 23.6484C50.6627 23.4569 50.7144 23.2436 50.7129 23.0273V15.5566H57.7441V34.0137H32.2559V15.5566Z" fill="#0B0040"/>
<path d="M38.8477 28.7402H36.2109C35.8613 28.7402 35.526 28.8791 35.2787 29.1264C35.0315 29.3736 34.8926 29.7089 34.8926 30.0586C34.8926 30.4082 35.0315 30.7436 35.2787 30.9908C35.526 31.2381 35.8613 31.377 36.2109 31.377H38.8477C39.1973 31.377 39.5326 31.2381 39.7799 30.9908C40.0271 30.7436 40.166 30.4082 40.166 30.0586C40.166 29.7089 40.0271 29.3736 39.7799 29.1264C39.5326 28.8791 39.1973 28.7402 38.8477 28.7402ZM88.6816 62.1387H79.7168V42.3633C79.7168 42.0136 79.5779 41.6783 79.3307 41.4311C79.0834 41.1838 78.7481 41.0449 78.3984 41.0449H50.2734C49.9238 41.0449 49.5885 41.1838 49.3412 41.4311C49.094 41.6783 48.9551 42.0136 48.9551 42.3633V62.1387H41.0449V42.3633C41.0449 42.0136 40.906 41.6783 40.6588 41.4311C40.4115 41.1838 40.0762 41.0449 39.7266 41.0449H11.6016C11.2519 41.0449 10.9166 41.1838 10.6693 41.4311C10.4221 41.6783 10.2832 42.0136 10.2832 42.3633V62.1387H1.31836C0.968709 62.1387 0.633379 62.2776 0.386139 62.5248C0.138898 62.772 0 63.1074 0 63.457L0 67.8516C0.000930907 68.9002 0.417924 69.9057 1.15944 70.6472C1.90096 71.3887 2.90641 71.8057 3.95508 71.8066H7.03125V75.7617C7.03125 76.1114 7.17015 76.4467 7.41739 76.6939C7.66463 76.9412 7.99996 77.0801 8.34961 77.0801H29.4434C29.793 77.0801 30.1283 76.9412 30.3756 76.6939C30.6228 76.4467 30.7617 76.1114 30.7617 75.7617V71.8066H59.2383V75.7617C59.2383 76.1114 59.3772 76.4467 59.6244 76.6939C59.8717 76.9412 60.207 77.0801 60.5566 77.0801H81.6504C82 77.0801 82.3354 76.9412 82.5826 76.6939C82.8299 76.4467 82.9688 76.1114 82.9688 75.7617V71.8066H86.0449C87.0936 71.8057 88.099 71.3887 88.8406 70.6472C89.5821 69.9057 89.9991 68.9002 90 67.8516V63.457C90 63.1074 89.8611 62.772 89.6139 62.5248C89.3666 62.2776 89.0313 62.1387 88.6816 62.1387ZM61.2598 43.6816H67.4121V49.2047L64.8264 48.1641C64.5117 48.0375 64.1602 48.0375 63.8455 48.1641L61.2598 49.1977V43.6816ZM51.5918 43.6816H58.623V51.1523C58.6215 51.3686 58.6733 51.5819 58.7737 51.7734C58.8742 51.9649 59.0203 52.1286 59.1991 52.2503C59.3779 52.3719 59.5839 52.4476 59.7989 52.4707C60.0139 52.4939 60.2313 52.4637 60.4318 52.3828L64.3359 50.8148L68.24 52.3828C68.4406 52.4637 68.658 52.4939 68.873 52.4707C69.088 52.4476 69.294 52.3719 69.4728 52.2503C69.6516 52.1286 69.7977 51.9649 69.8981 51.7734C69.9986 51.5819 70.0504 51.3686 70.0488 51.1523V43.6816H77.0801V62.1387H51.5918V43.6816ZM22.5879 43.6816H28.7402V49.2047L26.1545 48.1641C25.8398 48.0375 25.4883 48.0375 25.1736 48.1641L22.5879 49.1977V43.6816ZM12.9199 43.6816H19.9512V51.1523C19.9501 51.3684 20.0021 51.5815 20.1027 51.7727C20.2033 51.964 20.3493 52.1276 20.528 52.2491C20.7067 52.3707 20.9125 52.4464 21.1273 52.4697C21.3421 52.493 21.5594 52.4632 21.76 52.3828L25.6641 50.8148L29.5682 52.3828C29.7687 52.4632 29.986 52.493 30.2008 52.4697C30.4157 52.4464 30.6215 52.3707 30.8001 52.2491C30.9788 52.1276 31.1249 51.964 31.2254 51.7727C31.326 51.5815 31.3781 51.3684 31.377 51.1523V43.6816H38.4082V62.1387H12.9199V43.6816ZM28.125 74.4434H9.66797V71.8066H28.125V74.4434ZM80.332 74.4434H61.875V71.8066H80.332V74.4434ZM87.3633 67.8516C87.3633 68.2012 87.2244 68.5365 86.9771 68.7838C86.7299 69.031 86.3946 69.1699 86.0449 69.1699H3.95508C3.60543 69.1699 3.2701 69.031 3.02286 68.7838C2.77562 68.5365 2.63672 68.2012 2.63672 67.8516V64.7754H87.3633V67.8516Z" fill="#3F73DB"/>
</g>
<defs>
<clipPath id="clip0_6451_1454">
<rect width="90" height="90" fill="white"/>
</clipPath>
</defs>
</svg>
