<svg width="94" height="94" viewBox="0 0 94 94" fill="none" xmlns="http://www.w3.org/2000/svg">
<path d="M66.6757 61.1882C62.2578 62.6559 57.7504 60.4365 55.9665 56.83C55.7867 56.4757 55.7003 56.0815 55.7155 55.6845C55.7307 55.2875 55.8471 54.901 56.0535 54.5616C56.26 54.2222 56.5497 53.9411 56.8952 53.7451C57.2407 53.549 57.6305 53.4444 58.0278 53.4412H58.4961C59.4 53.4412 60.1159 54.0587 60.4679 54.891C61.0347 56.2304 62.3622 57.173 63.9044 57.173C64.8597 57.1552 65.7718 56.7717 66.4528 56.1014C67.1337 55.4312 67.5316 54.5252 67.5645 53.5703C67.5974 52.6154 67.2628 51.6842 66.6295 50.9687C65.9963 50.2532 65.1128 49.8078 64.161 49.7243C60.5037 49.4767 57.0732 47.4632 56.053 43.9402C55.6776 42.7118 55.5951 41.4126 55.812 40.1466C56.0289 38.8806 56.5392 37.6829 57.302 36.6495C58.0649 35.6162 59.0591 34.7757 60.2051 34.1956C61.3511 33.6154 62.617 33.3117 63.9014 33.3086C67.4184 33.3086 70.5656 35.534 71.7916 38.6453C72.3345 40.0205 71.2576 41.512 69.778 41.509H69.3097C68.4058 41.509 67.6929 40.8885 67.3409 40.0592C67.0056 39.2676 66.407 38.6161 65.6465 38.2152C64.886 37.8142 64.0103 37.6883 63.1676 37.8589C62.325 38.0295 61.5672 38.486 61.0225 39.1511C60.4778 39.8163 60.1796 40.6493 60.1786 41.509C60.1786 43.5613 61.8521 45.2408 63.9074 45.2408C65.1986 45.2432 66.471 45.5495 67.6219 46.1348C68.7727 46.7202 69.7696 47.5682 70.532 48.6102C71.2944 49.6523 71.8008 50.8591 72.0103 52.1332C72.2198 53.4072 72.1265 54.7127 71.7379 55.944C71.3714 57.1565 70.7218 58.2644 69.8426 59.1762C68.9634 60.0881 67.8799 60.7777 66.6816 61.1882H66.6757Z" fill="#0B0040"/>
<path d="M61.6641 35.5436V32.0504C61.6527 31.75 61.7021 31.4503 61.8091 31.1693C61.9161 30.8883 62.0787 30.6318 62.2871 30.4151C62.4955 30.1983 62.7455 30.0258 63.0221 29.9079C63.2986 29.7899 63.5961 29.7289 63.8968 29.7285C64.1975 29.7281 64.4952 29.7883 64.772 29.9056C65.0489 30.0228 65.2993 30.1946 65.5083 30.4108C65.7173 30.627 65.8806 30.883 65.9884 31.1637C66.0962 31.4444 66.1463 31.744 66.1357 32.0444V35.5376H61.6641V35.5436ZM63.8984 65.3741C63.3051 65.3741 62.736 65.1384 62.3164 64.7188C61.8968 64.2992 61.6611 63.7302 61.6611 63.1368V59.408H66.1357V63.1368C66.1357 63.7302 65.9 64.2992 65.4804 64.7188C65.0608 65.1384 64.4918 65.3741 63.8984 65.3741Z" fill="#0B0040"/>
<path d="M28.8389 71.6093C30.0745 71.6093 31.0761 70.6077 31.0761 69.3721C31.0761 68.1364 30.0745 67.1348 28.8389 67.1348C27.6032 67.1348 26.6016 68.1364 26.6016 69.3721C26.6016 70.6077 27.6032 71.6093 28.8389 71.6093Z" fill="#0B0040"/>
<path d="M36.3076 71.6093C37.5432 71.6093 38.5449 70.6077 38.5449 69.3721C38.5449 68.1364 37.5432 67.1348 36.3076 67.1348C35.072 67.1348 34.0703 68.1364 34.0703 69.3721C34.0703 70.6077 35.072 71.6093 36.3076 71.6093Z" fill="#3F73DB"/>
<path d="M40.7796 15.5723H27.3589C26.1233 15.5723 25.1216 16.5739 25.1216 17.8096C25.1216 19.0452 26.1233 20.0468 27.3589 20.0468H40.7796C42.0152 20.0468 43.0169 19.0452 43.0169 17.8096C43.0169 16.5739 42.0152 15.5723 40.7796 15.5723Z" fill="#3F73DB"/>
<path d="M34.8105 23.248H27.3589C26.1233 23.248 25.1216 24.2497 25.1216 25.4853C25.1216 26.721 26.1233 27.7226 27.3589 27.7226H34.8105C36.0462 27.7226 37.0478 26.721 37.0478 25.4853C37.0478 24.2497 36.0462 23.248 34.8105 23.248Z" fill="#3F73DB"/>
<path d="M63.8986 73.7718C49.5054 73.7718 37.7969 62.0633 37.7969 47.6701C37.7969 33.2768 49.5054 21.5684 63.8986 21.5684C78.2918 21.5684 90.0003 33.2768 90.0003 47.6701C90.0003 62.0633 78.2918 73.7718 63.8986 73.7718ZM63.8986 26.0429C51.9723 26.0429 42.2715 35.7438 42.2715 47.6701C42.2715 59.5963 51.9723 69.2972 63.8986 69.2972C75.8248 69.2972 85.5257 59.5963 85.5257 47.6701C85.5257 35.7438 75.8248 26.0429 63.8986 26.0429Z" fill="#0B0040"/>
<path d="M66.6753 91.2076C65.8788 91.2076 65.0793 91.0256 64.3455 90.6587L55.5037 86.2378C55.3859 86.1789 55.2545 86.1523 55.1229 86.1607C54.9914 86.1691 54.8645 86.2122 54.755 86.2856L48.8963 90.1934C48.0386 90.7654 47.0307 91.0707 45.9997 91.0707C44.9688 91.0707 43.9609 90.7654 43.1032 90.1934L37.2445 86.2856C37.1357 86.2132 37.0098 86.1708 36.8795 86.1624C36.7491 86.154 36.6189 86.18 36.5017 86.2378L27.6599 90.6587C26.8354 91.0705 25.9166 91.257 24.9967 91.1994C24.0768 91.1418 23.1885 90.8421 22.4217 90.3306L16.2557 86.211C15.5416 85.7337 14.9562 85.0876 14.5514 84.33C14.1465 83.5724 13.9348 82.7266 13.9349 81.8677V24.3126H18.4095V81.8677L18.7406 82.4881L24.9096 86.6077C25.019 86.6811 25.146 86.7242 25.2775 86.7326C25.409 86.741 25.5404 86.7144 25.6583 86.6555L34.5001 82.2346C35.3231 81.8231 36.2402 81.6365 37.1585 81.6936C38.0768 81.7507 38.9637 82.0495 39.7294 82.5597L45.5851 86.4645C45.708 86.5462 45.8522 86.5898 45.9997 86.5898C46.1473 86.5898 46.2915 86.5462 46.4144 86.4645L52.2701 82.5597C53.0361 82.0489 53.9236 81.7498 54.8425 81.6927C55.7614 81.6356 56.6791 81.8226 57.5024 82.2346L66.3412 86.6525C66.4591 86.7114 66.5905 86.738 66.722 86.7296C66.8535 86.7212 66.9805 86.6781 67.0899 86.6047L73.2589 82.4851L73.59 81.8647V78.0106C73.59 77.4172 73.8257 76.8481 74.2453 76.4286C74.6649 76.009 75.2339 75.7733 75.8273 75.7733C76.4206 75.7733 76.9897 76.009 77.4093 76.4286C77.8289 76.8481 78.0646 77.4172 78.0646 78.0106V81.8647C78.0646 83.6098 77.1935 85.2385 75.7438 86.208L69.5778 90.3276C68.7169 90.8999 67.7061 91.205 66.6723 91.2046L66.6753 91.2076ZM75.8303 20.0469C75.2369 20.0469 74.6678 19.8112 74.2483 19.3916C73.8287 18.972 73.593 18.403 73.593 17.8096V14.8564C73.593 13.0763 72.8858 11.3691 71.6271 10.1104C70.3684 8.85164 68.6612 8.1445 66.8811 8.1445H10.2031V3.66992H66.8811C69.8479 3.66992 72.6933 4.84849 74.7911 6.94636C76.889 9.04422 78.0676 11.8895 78.0676 14.8564V17.8096C78.0676 18.403 77.8318 18.972 77.4123 19.3916C76.9927 19.8112 76.4236 20.0469 75.8303 20.0469Z" fill="#3F73DB"/>
<path d="M18.4068 49.9072H10.2034C8.0282 49.9056 5.94256 49.0409 4.40446 47.5028C2.86637 45.9647 2.00158 43.879 2 41.7038V11.8733C2 7.34803 5.6781 3.66992 10.2034 3.66992C14.7287 3.66992 18.4068 7.34803 18.4068 11.8733V49.9072ZM10.2034 8.1445C8.14807 8.1445 6.47458 9.81799 6.47458 11.8733V41.7038C6.47458 43.7592 8.14807 45.4327 10.2034 45.4327H13.9322V11.8733C13.9322 9.81799 12.2587 8.1445 10.2034 8.1445Z" fill="#3F73DB"/>
</svg>
