<svg width="60" height="60" viewBox="0 0 60 60" fill="none" xmlns="http://www.w3.org/2000/svg">
<g clip-path="url(#clip0_6451_1381)">
<path d="M56.3877 34.1552L51.6377 17.0652C50.2454 12.0585 47.2195 7.66092 43.041 4.57138C38.8625 1.48183 33.7712 -0.122331 28.5764 0.0138689C23.3815 0.150069 18.3812 2.01882 14.3704 5.32307C10.3595 8.62733 7.56821 13.1775 6.4402 18.2502L2.7627 34.7877C2.35649 36.615 2.36588 38.5103 2.79018 40.3335C3.21448 42.1567 4.04286 43.8614 5.21415 45.3216C6.38545 46.7818 7.86975 47.9603 9.55748 48.7701C11.2452 49.5799 13.0933 50.0003 14.9652 50.0002H17.7502C18.324 52.8259 19.857 55.3664 22.0896 57.1911C24.3221 59.0159 27.1168 60.0127 30.0002 60.0127C32.8836 60.0127 35.6783 59.0159 37.9108 57.1911C40.1434 55.3664 41.6764 52.8259 42.2502 50.0002H44.3452C46.2722 50.0003 48.1732 49.5549 49.8996 48.6988C51.626 47.8426 53.1311 46.5989 54.2973 45.0649C55.4634 43.5308 56.2591 41.7478 56.6222 39.8553C56.9853 37.9628 56.9034 36.0119 56.3877 34.1552ZM30.0002 55.0002C28.4545 54.9938 26.9486 54.51 25.6885 53.615C24.4283 52.72 23.4754 51.4575 22.9602 50.0002H37.0402C36.525 51.4575 35.5721 52.72 34.3119 53.615C33.0518 54.51 31.5458 54.9938 30.0002 55.0002ZM50.3152 42.0377C49.6186 42.9619 48.716 43.7108 47.6792 44.2251C46.6424 44.7394 45.5 45.0048 44.3427 45.0002H14.9652C13.8422 45 12.7335 44.7476 11.7211 44.2616C10.7086 43.7757 9.81821 43.0685 9.1156 42.1924C8.41299 41.3163 7.9161 40.2936 7.6616 39.1998C7.40711 38.106 7.4015 36.969 7.6452 35.8727L11.3202 19.3327C12.2061 15.3482 14.3985 11.7742 17.5488 9.17882C20.6992 6.58344 24.6268 5.11563 28.7071 5.00874C32.7875 4.90184 36.7865 6.162 40.0685 8.58887C43.3504 11.0158 45.7269 14.4701 46.8202 18.4027L51.5702 35.4927C51.8841 36.6061 51.934 37.7774 51.7162 38.9135C51.4983 40.0496 51.0187 41.1193 50.3152 42.0377Z" fill="white"/>
<circle cx="45.5" cy="11.5" r="11.5" fill="#FF4949"/>
</g>
<defs>
<clipPath id="clip0_6451_1381">
<rect width="60" height="60" fill="white"/>
</clipPath>
</defs>
</svg>
