<svg width="90" height="90" viewBox="0 0 90 90" fill="none" xmlns="http://www.w3.org/2000/svg">
<path d="M71.3551 11.7917H63.2129V8.14914C63.2129 6.97065 61.9274 6.43503 60.7489 6.43503H54.428C52.9282 2.14963 49.1784 0.00693679 44.8931 0.00693679C40.6548 -0.152397 36.7999 2.44636 35.3581 6.43503H29.1443C27.9658 6.43503 26.7873 6.97065 26.7873 8.14914V11.7917H18.6449C13.8198 11.8431 9.87231 15.6495 9.64551 20.4695V81.8576C9.64551 86.5715 13.9309 89.9998 18.6449 89.9998H71.3551C76.0691 89.9998 80.3545 86.5715 80.3545 81.8576V20.4697C80.1277 15.6495 76.1802 11.8431 71.3551 11.7917ZM31.0725 10.7204H36.9649C37.466 10.6593 37.9342 10.4389 38.3006 10.0918C38.6671 9.74463 38.9124 9.28903 39.0006 8.79201C39.635 6.029 42.0591 4.04564 44.8931 3.971C47.7008 4.0561 50.0883 6.04561 50.6783 8.79201C50.7717 9.30525 51.0327 9.773 51.4204 10.122C51.8082 10.4709 52.3008 10.6814 52.821 10.7204H58.9277V19.2912H31.0725V10.7204ZM76.0691 81.8578C76.0691 84.2148 73.7121 85.7146 71.3551 85.7146H18.6449C16.2879 85.7146 13.9309 84.2148 13.9309 81.8578V20.4697C14.1495 18.0163 16.1821 16.1222 18.6449 16.0773H26.7871V21.5411C26.9003 22.7416 27.9399 23.6395 29.1441 23.5768H60.7487C61.34 23.6092 61.9219 23.4177 62.3785 23.0405C62.8351 22.6633 63.1329 22.128 63.2127 21.5411V16.0771H71.3549C73.8175 16.1222 75.8503 18.0161 76.0689 20.4695V81.8578H76.0691Z" fill="#3F73DB"/>
<path d="M36.7508 47.8955C35.9472 47.0484 34.613 47.0006 33.751 47.7885L26.8943 54.3236L24.0017 51.3237C23.198 50.4766 21.8639 50.4291 21.0018 51.2167C20.6023 51.6352 20.3794 52.1916 20.3794 52.7702C20.3794 53.3487 20.6023 53.9051 21.0018 54.3236L25.3943 58.8233C25.5821 59.0336 25.8137 59.2001 26.0728 59.3112C26.332 59.4223 26.6123 59.4752 26.8941 59.4661C27.4593 59.4581 27.9984 59.2271 28.3939 58.8233L36.7504 50.8954C37.5789 50.1354 37.6342 48.8476 36.8741 48.0194C36.835 47.9761 36.7939 47.9348 36.7508 47.8955ZM67.4985 52.5022H42.8576C41.6742 52.5022 40.7149 53.4615 40.7149 54.6449C40.7149 55.8283 41.6742 56.7876 42.8576 56.7876H67.4985C68.6819 56.7876 69.6412 55.8283 69.6412 54.6449C69.6412 53.4615 68.6819 52.5022 67.4985 52.5022ZM36.7508 30.7539C35.9472 29.9068 34.613 29.8591 33.751 30.6469L26.8943 37.182L24.0017 34.1822C23.198 33.3351 21.8639 33.2873 21.0018 34.0751C20.6023 34.4936 20.3794 35.05 20.3794 35.6286C20.3794 36.2072 20.6023 36.7635 21.0018 37.182L25.3943 41.6817C25.5821 41.892 25.8137 42.0586 26.0728 42.1696C26.332 42.2807 26.6123 42.3336 26.8941 42.3246C27.4593 42.3166 27.9984 42.0855 28.3939 41.6817L36.7504 33.7538C37.5789 32.9938 37.6342 31.706 36.8741 30.8778C36.835 30.8345 36.7939 30.7932 36.7508 30.7539ZM67.4985 35.3607H42.8576C41.6742 35.3607 40.7149 36.3199 40.7149 37.5034C40.7149 38.6868 41.6742 39.6461 42.8576 39.6461H67.4985C68.6819 39.6461 69.6412 38.6868 69.6412 37.5034C69.6412 36.3199 68.6819 35.3607 67.4985 35.3607ZM36.7508 65.0369C35.9472 64.1898 34.613 64.1422 33.751 64.9298L26.8943 71.465L24.0017 68.4651C23.198 67.618 21.8639 67.5704 21.0018 68.3581C20.6023 68.7766 20.3794 69.3329 20.3794 69.9115C20.3794 70.4901 20.6023 71.0464 21.0018 71.465L25.3943 75.9646C25.5821 76.1749 25.8137 76.3415 26.0728 76.4526C26.332 76.5636 26.6123 76.6165 26.8941 76.6075C27.4593 76.5995 27.9984 76.3684 28.3939 75.9646L36.7504 68.0367C37.5789 67.2768 37.6342 65.989 36.8741 65.1607C36.8349 65.1176 36.7938 65.0762 36.7508 65.0369ZM67.4985 69.6438H42.8576C41.6742 69.6438 40.7149 70.6031 40.7149 71.7865C40.7149 72.9699 41.6742 73.9292 42.8576 73.9292H67.4985C68.6819 73.9292 69.6412 72.9699 69.6412 71.7865C69.6412 70.6031 68.6819 69.6438 67.4985 69.6438Z" fill="#0B0040"/>
</svg>
