<svg width="90" height="90" viewBox="0 0 90 90" fill="none" xmlns="http://www.w3.org/2000/svg">
<path d="M62.8848 66.834C64.0497 66.834 64.9941 65.8896 64.9941 64.7246C64.9941 63.5596 64.0497 62.6152 62.8848 62.6152C61.7198 62.6152 60.7754 63.5596 60.7754 64.7246C60.7754 65.8896 61.7198 66.834 62.8848 66.834Z" fill="#0B0040"/>
<path d="M69.9272 66.834C71.0922 66.834 72.0366 65.8896 72.0366 64.7246C72.0366 63.5596 71.0922 62.6152 69.9272 62.6152C68.7623 62.6152 67.8179 63.5596 67.8179 64.7246C67.8179 65.8896 68.7623 66.834 69.9272 66.834Z" fill="#3F73DB"/>
<path d="M63.4103 33.0273H53.5693C52.4044 33.0273 51.46 33.9717 51.46 35.1367C51.46 36.3017 52.4044 37.2461 53.5693 37.2461H63.4103C64.5752 37.2461 65.5196 36.3017 65.5196 35.1367C65.5196 33.9717 64.5752 33.0273 63.4103 33.0273Z" fill="#3F73DB"/>
<path d="M30.2739 71.2524C26.1086 72.6362 21.8589 70.5437 20.177 67.1434C20.0074 66.8094 19.926 66.4376 19.9403 66.0634C19.9547 65.6891 20.0644 65.3247 20.259 65.0047C20.4537 64.6847 20.7268 64.4197 21.0526 64.2348C21.3783 64.05 21.7459 63.9514 22.1204 63.9484H22.562C23.4142 63.9484 24.0892 64.5305 24.4211 65.3152C24.9554 66.578 26.207 67.4668 27.6611 67.4668C28.5618 67.45 29.4217 67.0884 30.0637 66.4565C30.7057 65.8245 31.0809 64.9704 31.1119 64.0701C31.1429 63.1698 30.8274 62.2918 30.2304 61.6172C29.6334 60.9426 28.8003 60.5227 27.9029 60.444C24.4548 60.2105 21.2204 58.3121 20.2586 54.9905C19.9046 53.8324 19.8268 52.6075 20.0313 51.4138C20.2358 50.2202 20.7169 49.091 21.4362 48.1167C22.1554 47.1424 23.0928 46.3501 24.1733 45.8031C25.2537 45.2561 26.4472 44.9697 27.6582 44.9668C30.9742 44.9668 33.9414 47.0649 35.0973 49.9984C35.6092 51.2949 34.5939 52.7012 33.1989 52.6984H32.7573C31.9051 52.6984 31.2329 52.1134 30.9011 51.3315C30.5849 50.5851 30.0205 49.9709 29.3035 49.5928C28.5865 49.2148 27.7609 49.0961 26.9664 49.2569C26.1719 49.4178 25.4574 49.8482 24.9439 50.4753C24.4303 51.1024 24.1492 51.8878 24.1482 52.6984C24.1482 54.6334 25.7261 56.2168 27.6639 56.2168C28.8812 56.2191 30.0809 56.5078 31.166 57.0597C32.251 57.6116 33.191 58.4111 33.9097 59.3936C34.6285 60.376 35.106 61.5139 35.3035 62.7151C35.501 63.9163 35.413 65.1471 35.0467 66.308C34.7012 67.4512 34.0886 68.4958 33.2597 69.3555C32.4308 70.2152 31.4093 70.8654 30.2795 71.2524H30.2739Z" fill="#3F73DB"/>
<path d="M25.5516 47.0724V43.779C25.5409 43.4957 25.5874 43.2132 25.6883 42.9483C25.7893 42.6833 25.9425 42.4415 26.139 42.2372C26.3355 42.0328 26.5712 41.8702 26.832 41.759C27.0927 41.6477 27.3732 41.5902 27.6567 41.5898C27.9402 41.5895 28.2208 41.6462 28.4819 41.7568C28.7429 41.8673 28.979 42.0293 29.1761 42.2331C29.3731 42.4369 29.527 42.6784 29.6287 42.943C29.7303 43.2076 29.7775 43.4901 29.7676 43.7734V47.0668H25.5516V47.0724ZM27.6582 75.1974C27.0988 75.1974 26.5622 74.9752 26.1667 74.5796C25.7711 74.184 25.5488 73.6475 25.5488 73.0881V69.5724H29.7676V73.0881C29.7676 73.6475 29.5453 74.184 29.1498 74.5796C28.7542 74.9752 28.2176 75.1974 27.6582 75.1974Z" fill="#3F73DB"/>
<path d="M27.6918 86.4824C26.6455 86.4824 25.588 86.4149 24.5277 86.2715C13.6883 84.8287 5.36614 75.5277 4.73051 64.154L3.64207 44.5874C3.52114 42.3937 4.91051 40.4418 7.10426 39.7359C8.1057 39.4101 9.01054 38.8407 9.73756 38.0788C10.4646 37.3169 10.991 36.3864 11.2696 35.3709C11.863 33.1377 13.7446 31.6387 15.9468 31.6387H39.3664C41.5686 31.6387 43.4474 33.1377 44.0436 35.3709C44.3227 36.3866 44.8496 37.3172 45.5771 38.0791C46.3046 38.841 47.2099 39.4102 48.2118 39.7359C50.3971 40.4418 51.7893 42.388 51.6711 44.5818L50.5461 64.8346C50.3658 67.989 49.5375 71.0723 48.1129 73.8924C46.6884 76.7125 44.6981 79.2089 42.2661 81.2259C38.1754 84.6341 33.0162 86.4949 27.6918 86.4824ZM15.9496 35.8574C15.6261 35.8574 15.4236 36.1809 15.3505 36.4593C14.8983 38.1605 14.0248 39.7204 12.8107 40.995C11.5965 42.2696 10.0809 43.2178 8.40364 43.7521C8.1927 43.8196 7.84114 44.0221 7.86082 44.3512L8.94926 63.9177C9.46957 73.2721 16.2561 80.9165 25.0902 82.0921C30.3749 82.7952 35.5189 81.3327 39.5774 77.9746C41.5625 76.3292 43.1869 74.2921 44.3493 71.9906C45.5117 69.6891 46.187 67.1726 46.333 64.5984L47.458 44.3512C47.4749 44.0446 47.1768 43.8365 46.9152 43.7521C45.2374 43.2182 43.7212 42.2702 42.5066 40.9956C41.2919 39.721 40.418 38.1608 39.9655 36.4593C39.8924 36.1809 39.6899 35.8574 39.3664 35.8574H15.9496Z" fill="#3F73DB"/>
<path d="M64.6761 58.3594L56.9558 58.3537C56.6788 58.3534 56.4046 58.2985 56.1488 58.1921C55.893 58.0858 55.6607 57.9301 55.4651 57.7339C55.2695 57.5378 55.1144 57.3051 55.0087 57.049C54.9031 56.7929 54.8489 56.5186 54.8493 56.2416C54.8496 55.9646 54.9046 55.6903 55.0109 55.4346C55.1172 55.1788 55.2729 54.9464 55.4691 54.7508C55.6652 54.5552 55.8979 54.4002 56.154 54.2945C56.4101 54.1888 56.6844 54.1346 56.9614 54.135L64.6818 54.1406C66.3597 54.1377 67.9681 53.4702 69.1551 52.2842C70.3421 51.0983 71.011 49.4904 71.0155 47.8125V14.0625C71.0155 12.3842 70.3488 10.7746 69.162 9.58784C67.9753 8.40109 66.3657 7.73438 64.6874 7.73438H14.0596C12.3812 7.73438 10.7717 8.40109 9.58491 9.58784C8.39816 10.7746 7.73145 12.3842 7.73145 14.0625V32.3494C7.73145 32.9088 7.50921 33.4453 7.11362 33.8409C6.71804 34.2365 6.18151 34.4587 5.62207 34.4587C5.06263 34.4587 4.5261 34.2365 4.13052 33.8409C3.73493 33.4453 3.5127 32.9088 3.5127 32.3494V14.0625C3.5127 11.2653 4.62388 8.58266 6.6018 6.60473C8.57973 4.62681 11.2624 3.51563 14.0596 3.51562H64.6846C67.4818 3.51563 70.1644 4.62681 72.1423 6.60473C74.1203 8.58266 75.2314 11.2653 75.2314 14.0625V47.8125C75.224 50.6089 74.1093 53.2885 72.1311 55.265C70.153 57.2416 67.4725 58.3542 64.6761 58.3594Z" fill="#0B0040"/>
<path d="M75.9346 75.2344H55.5439C54.9845 75.2344 54.448 75.0121 54.0524 74.6166C53.6568 74.221 53.4346 73.6844 53.4346 73.125C53.4346 72.5656 53.6568 72.029 54.0524 71.6334C54.448 71.2379 54.9845 71.0156 55.5439 71.0156H75.9346C77.6129 71.0156 79.2225 70.3489 80.4092 69.1622C81.596 67.9754 82.2627 66.3658 82.2627 64.6875V30.9375C82.2627 29.2592 81.596 27.6496 80.4092 26.4628C79.2225 25.2761 77.6129 24.6094 75.9346 24.6094H73.1221V20.3906H75.9346C78.7318 20.3906 81.4144 21.5018 83.3923 23.4797C85.3703 25.4577 86.4814 28.1403 86.4814 30.9375V64.6875C86.4814 67.4847 85.3703 70.1673 83.3923 72.1453C81.4144 74.1232 78.7318 75.2344 75.9346 75.2344Z" fill="#0B0040"/>
<path d="M5.68115 17.5801H73.0574V21.7988H5.68115V17.5801ZM73.0574 35.6729H84.3721V39.8916H73.0574V35.6729Z" fill="#0B0040"/>
</svg>
