<svg width="108" height="108" viewBox="0 0 108 108" fill="none" xmlns="http://www.w3.org/2000/svg">
<rect x="2" y="2" width="104" height="104" rx="22" fill="white" stroke="#E0E0E0" stroke-width="4"/>
<g clip-path="url(#clip0_6451_1376)">
<path d="M54 54C56.9667 54 59.8668 53.1203 62.3336 51.4721C64.8003 49.8238 66.7229 47.4812 67.8582 44.7403C68.9935 41.9994 69.2906 38.9834 68.7118 36.0737C68.133 33.1639 66.7044 30.4912 64.6066 28.3934C62.5088 26.2956 59.8361 24.867 56.9264 24.2882C54.0166 23.7094 51.0006 24.0065 48.2597 25.1418C45.5189 26.2771 43.1762 28.1997 41.528 30.6665C39.8797 33.1332 39 36.0333 39 39C39.004 42.977 40.5856 46.79 43.3978 49.6022C46.21 52.4144 50.023 53.996 54 54ZM54 29C55.9778 29 57.9112 29.5865 59.5557 30.6853C61.2002 31.7841 62.4819 33.3459 63.2388 35.1732C63.9957 37.0004 64.1937 39.0111 63.8079 40.9509C63.422 42.8907 62.4696 44.6726 61.0711 46.0711C59.6725 47.4696 57.8907 48.422 55.9509 48.8079C54.0111 49.1937 52.0004 48.9957 50.1732 48.2388C48.3459 47.4819 46.7841 46.2002 45.6853 44.5557C44.5865 42.9112 44 40.9778 44 39C44 36.3478 45.0536 33.8043 46.9289 31.9289C48.8043 30.0536 51.3478 29 54 29ZM54 59C48.0347 59.0066 42.3155 61.3793 38.0974 65.5974C33.8793 69.8155 31.5066 75.5347 31.5 81.5C31.5 82.163 31.7634 82.7989 32.2322 83.2678C32.7011 83.7366 33.337 84 34 84C34.663 84 35.2989 83.7366 35.7678 83.2678C36.2366 82.7989 36.5 82.163 36.5 81.5C36.5 76.8587 38.3437 72.4075 41.6256 69.1256C44.9075 65.8438 49.3587 64 54 64C58.6413 64 63.0925 65.8438 66.3744 69.1256C69.6563 72.4075 71.5 76.8587 71.5 81.5C71.5 82.163 71.7634 82.7989 72.2322 83.2678C72.7011 83.7366 73.337 84 74 84C74.663 84 75.2989 83.7366 75.7678 83.2678C76.2366 82.7989 76.5 82.163 76.5 81.5C76.4934 75.5347 74.1207 69.8155 69.9026 65.5974C65.6845 61.3793 59.9653 59.0066 54 59Z" fill="#546D79"/>
</g>
<defs>
<clipPath id="clip0_6451_1376">
<rect width="60" height="60" fill="white" transform="translate(24 24)"/>
</clipPath>
</defs>
</svg>
