<svg width="88" height="79" viewBox="0 0 88 79" fill="none" xmlns="http://www.w3.org/2000/svg">
<path fill-rule="evenodd" clip-rule="evenodd" d="M70.4238 72.1244C73.5213 72.1244 76.0325 69.6044 76.0325 66.4981V57.4988C76.0092 57.0425 76.079 56.5863 76.2376 56.1578C76.3961 55.7294 76.6402 55.3377 76.9549 55.0065C77.2696 54.6754 77.6484 54.4117 78.0682 54.2315C78.488 54.0513 78.94 53.9584 79.3969 53.9584C79.8537 53.9584 80.3058 54.0513 80.7256 54.2315C81.1454 54.4117 81.5242 54.6754 81.8389 55.0065C82.1536 55.3377 82.3976 55.7294 82.5562 56.1578C82.7148 56.5863 82.7845 57.0425 82.7613 57.4988V66.4981C82.7659 69.7753 81.4688 72.9201 79.1552 75.2411C76.8416 77.5621 73.7009 78.8692 70.4238 78.875H61.4506C60.5554 78.875 59.6969 78.5194 59.0639 77.8864C58.4309 77.2534 58.0753 76.3949 58.0753 75.4997C58.0753 74.6045 58.4309 73.746 59.0639 73.113C59.6969 72.48 60.5554 72.1244 61.4506 72.1244H70.4238ZM70.4238 6.87563C73.5213 6.87563 76.0325 9.39125 76.0325 12.5019V21.5013C76.0092 21.9575 76.079 22.4137 76.2376 22.8422C76.3961 23.2706 76.6402 23.6623 76.9549 23.9935C77.2696 24.3246 77.6484 24.5883 78.0682 24.7685C78.488 24.9487 78.94 25.0416 79.3969 25.0416C79.8537 25.0416 80.3058 24.9487 80.7256 24.7685C81.1454 24.5883 81.5242 24.3246 81.8389 23.9935C82.1536 23.6623 82.3976 23.2706 82.5562 22.8422C82.7148 22.4137 82.7845 21.9575 82.7613 21.5013V12.5019C82.7659 9.22472 81.4688 6.07988 79.1552 3.75889C76.8416 1.4379 73.7009 0.130797 70.4238 0.125H61.4506C60.5554 0.125 59.6969 0.480612 59.0639 1.11361C58.4309 1.7466 58.0753 2.60512 58.0753 3.50031C58.0753 4.3955 58.4309 5.25402 59.0639 5.88702C59.6969 6.52001 60.5554 6.87563 61.4506 6.87563H70.4238ZM16.5763 72.1244C15.8386 72.1232 15.1083 71.9768 14.4272 71.6934C13.7461 71.4101 13.1275 70.9953 12.6066 70.4729C12.0858 69.9504 11.673 69.3305 11.3918 68.6485C11.1105 67.9665 10.9664 67.2358 10.9675 66.4981V57.4988C10.9908 57.0425 10.921 56.5863 10.7624 56.1578C10.6039 55.7294 10.3598 55.3377 10.0451 55.0065C9.73042 54.6754 9.35165 54.4117 8.93184 54.2315C8.51204 54.0513 8.05997 53.9584 7.60313 53.9584C7.14628 53.9584 6.69421 54.0513 6.27441 54.2315C5.8546 54.4117 5.47583 54.6754 5.16113 55.0065C4.84643 55.3377 4.60238 55.7294 4.44381 56.1578C4.28524 56.5863 4.21547 57.0425 4.23875 57.4988V66.4981C4.2341 69.7753 5.5312 72.9201 7.8448 75.2411C10.1584 77.5621 13.2991 78.8692 16.5763 78.875H25.5494C26.4446 78.875 27.3031 78.5194 27.9361 77.8864C28.5691 77.2534 28.9247 76.3949 28.9247 75.4997C28.9247 74.6045 28.5691 73.746 27.9361 73.113C27.3031 72.48 26.4446 72.1244 25.5494 72.1244H16.5763ZM16.5763 6.87563C13.4788 6.87563 10.9675 9.39125 10.9675 12.5019V21.5013C10.9908 21.9575 10.921 22.4137 10.7624 22.8422C10.6039 23.2706 10.3598 23.6623 10.0451 23.9935C9.73042 24.3246 9.35165 24.5883 8.93184 24.7685C8.51204 24.9487 8.05997 25.0416 7.60313 25.0416C7.14628 25.0416 6.69421 24.9487 6.27441 24.7685C5.8546 24.5883 5.47583 24.3246 5.16113 23.9935C4.84643 23.6623 4.60238 23.2706 4.44381 22.8422C4.28524 22.4137 4.21547 21.9575 4.23875 21.5013V12.5019C4.2341 9.22472 5.5312 6.07988 7.8448 3.75889C10.1584 1.4379 13.2991 0.130797 16.5763 0.125H25.5494C26.4446 0.125 27.3031 0.480612 27.9361 1.11361C28.5691 1.7466 28.9247 2.60512 28.9247 3.50031C28.9247 4.3955 28.5691 5.25402 27.9361 5.88702C27.3031 6.52001 26.4446 6.87563 25.5494 6.87563H16.5763Z" fill="#0B0040"/>
<path d="M87.2492 40.6636C87.4183 40.2544 87.505 39.8159 87.5044 39.3731C87.505 38.9304 87.4183 38.4918 87.2492 38.0826C87.0802 37.6734 86.8321 37.3015 86.5192 36.9882C86.2064 36.675 85.8348 36.4264 85.4258 36.2568C85.0168 36.0873 84.5784 36 84.1356 36H3.37313C2.47852 36 1.62055 36.3554 0.987966 36.988C0.355382 37.6205 0 38.4785 0 39.3731C0 40.2677 0.355382 41.1257 0.987966 41.7583C1.62055 42.3909 2.47852 42.7462 3.37313 42.7462H84.1356C84.5784 42.7462 85.0168 42.659 85.4258 42.4894C85.8348 42.3198 86.2064 42.0713 86.5192 41.758C86.8321 41.4447 87.0802 41.0729 87.2492 40.6636Z" fill="white"/>
</svg>
